<mxfile host="Electron" modified="2024-04-03T10:45:08.151Z" agent="Mozilla/5.0 (Macintosh; Intel Mac OS X 10_15_7) AppleWebKit/537.36 (KHTML, like Gecko) draw.io/24.1.0 Chrome/120.0.6099.109 Electron/28.1.0 Safari/537.36" etag="y0kR3G9tLnj9UOHOp6z8" version="24.1.0" type="device" pages="5">
  <diagram name="Zerto Deployment" id="eG0sn8VjS_qzeNetGSqx">
    <mxGraphModel dx="2060" dy="1131" grid="1" gridSize="10" guides="1" tooltips="1" connect="1" arrows="1" fold="1" page="1" pageScale="1" pageWidth="827" pageHeight="1169" math="0" shadow="0">
      <root>
        <mxCell id="YUkJ70VLG-JB5ZvIF8RC-0" />
        <mxCell id="YUkJ70VLG-JB5ZvIF8RC-1" parent="YUkJ70VLG-JB5ZvIF8RC-0" />
        <mxCell id="YUkJ70VLG-JB5ZvIF8RC-2" style="edgeStyle=orthogonalEdgeStyle;rounded=0;orthogonalLoop=1;jettySize=auto;html=1;" parent="YUkJ70VLG-JB5ZvIF8RC-1" source="YUkJ70VLG-JB5ZvIF8RC-3" target="YUkJ70VLG-JB5ZvIF8RC-5" edge="1">
          <mxGeometry relative="1" as="geometry" />
        </mxCell>
        <mxCell id="YUkJ70VLG-JB5ZvIF8RC-3" value="&lt;div style=&quot;&quot;&gt;Do you require&amp;nbsp;&lt;/div&gt;disaster recovery capability for VMware workloads across IBM Cloud regions" style="rounded=1;whiteSpace=wrap;html=1;align=center;fillColor=#dae8fc;strokeColor=#6c8ebf;" parent="YUkJ70VLG-JB5ZvIF8RC-1" vertex="1">
          <mxGeometry x="267.5" y="60" width="135" height="90" as="geometry" />
        </mxCell>
        <mxCell id="YUkJ70VLG-JB5ZvIF8RC-4" value="Yes" style="edgeStyle=orthogonalEdgeStyle;rounded=0;orthogonalLoop=1;jettySize=auto;html=1;" parent="YUkJ70VLG-JB5ZvIF8RC-1" source="YUkJ70VLG-JB5ZvIF8RC-5" target="YUkJ70VLG-JB5ZvIF8RC-7" edge="1">
          <mxGeometry relative="1" as="geometry">
            <Array as="points">
              <mxPoint x="425" y="250" />
            </Array>
          </mxGeometry>
        </mxCell>
        <mxCell id="YUkJ70VLG-JB5ZvIF8RC-5" value="&lt;span style=&quot;font-family: Helvetica; font-size: 12px; font-style: normal; font-variant-ligatures: normal; font-variant-caps: normal; font-weight: 400; letter-spacing: normal; orphans: 2; text-align: center; text-indent: 0px; text-transform: none; widows: 2; word-spacing: 0px; -webkit-text-stroke-width: 0px; text-decoration-thickness: initial; text-decoration-style: initial; text-decoration-color: initial; float: none; display: inline !important;&quot;&gt;Do you require&amp;nbsp;&lt;/span&gt;&lt;div&gt;&lt;span style=&quot;font-family: Helvetica; font-size: 12px; font-style: normal; font-variant-ligatures: normal; font-variant-caps: normal; font-weight: 400; letter-spacing: normal; orphans: 2; text-align: center; text-indent: 0px; text-transform: none; widows: 2; word-spacing: 0px; -webkit-text-stroke-width: 0px; text-decoration-thickness: initial; text-decoration-style: initial; text-decoration-color: initial; float: none; display: inline !important;&quot;&gt;vSphere &lt;br&gt;encryption &lt;br&gt;compatibility&lt;br&gt;&lt;/span&gt;&lt;/div&gt;" style="rhombus;whiteSpace=wrap;html=1;fillColor=#dae8fc;strokeColor=#6c8ebf;fontColor=default;labelBackgroundColor=none;" parent="YUkJ70VLG-JB5ZvIF8RC-1" vertex="1">
          <mxGeometry x="270" y="190" width="130" height="120" as="geometry" />
        </mxCell>
        <mxCell id="YUkJ70VLG-JB5ZvIF8RC-6" value="Zerto" style="rounded=0;whiteSpace=wrap;html=1;fillColor=#ffe6cc;strokeColor=#d79b00;" parent="YUkJ70VLG-JB5ZvIF8RC-1" vertex="1">
          <mxGeometry x="220" y="330" width="60" height="20" as="geometry" />
        </mxCell>
        <mxCell id="YUkJ70VLG-JB5ZvIF8RC-7" value="Veeam" style="rounded=0;whiteSpace=wrap;html=1;fillColor=#dae8fc;strokeColor=#6c8ebf;" parent="YUkJ70VLG-JB5ZvIF8RC-1" vertex="1">
          <mxGeometry x="390" y="330" width="70" height="20" as="geometry" />
        </mxCell>
        <mxCell id="YUkJ70VLG-JB5ZvIF8RC-8" value="No" style="edgeStyle=orthogonalEdgeStyle;rounded=0;orthogonalLoop=1;jettySize=auto;html=1;" parent="YUkJ70VLG-JB5ZvIF8RC-1" source="YUkJ70VLG-JB5ZvIF8RC-5" target="YUkJ70VLG-JB5ZvIF8RC-6" edge="1">
          <mxGeometry relative="1" as="geometry">
            <Array as="points">
              <mxPoint x="250" y="250" />
            </Array>
          </mxGeometry>
        </mxCell>
        <mxCell id="YUkJ70VLG-JB5ZvIF8RC-9" style="edgeStyle=orthogonalEdgeStyle;rounded=0;orthogonalLoop=1;jettySize=auto;html=1;exitX=0.5;exitY=0;exitDx=0;exitDy=0;" parent="YUkJ70VLG-JB5ZvIF8RC-1" source="YUkJ70VLG-JB5ZvIF8RC-11" target="YUkJ70VLG-JB5ZvIF8RC-11" edge="1">
          <mxGeometry relative="1" as="geometry">
            <mxPoint x="447.5" y="311" as="targetPoint" />
            <Array as="points">
              <mxPoint x="250" y="350" />
              <mxPoint x="250" y="350" />
            </Array>
            <mxPoint x="447.5" y="450" as="sourcePoint" />
          </mxGeometry>
        </mxCell>
        <mxCell id="YUkJ70VLG-JB5ZvIF8RC-10" value="Yes" style="edgeStyle=orthogonalEdgeStyle;rounded=0;orthogonalLoop=1;jettySize=auto;html=1;exitX=0;exitY=0.5;exitDx=0;exitDy=0;" parent="YUkJ70VLG-JB5ZvIF8RC-1" source="YUkJ70VLG-JB5ZvIF8RC-11" target="YUkJ70VLG-JB5ZvIF8RC-14" edge="1">
          <mxGeometry relative="1" as="geometry">
            <Array as="points">
              <mxPoint x="160" y="440" />
            </Array>
          </mxGeometry>
        </mxCell>
        <mxCell id="YUkJ70VLG-JB5ZvIF8RC-11" value="VCF &lt;br&gt;Architecture" style="rhombus;whiteSpace=wrap;html=1;fillColor=#dae8fc;strokeColor=#6c8ebf;fontColor=default;labelBackgroundColor=none;" parent="YUkJ70VLG-JB5ZvIF8RC-1" vertex="1">
          <mxGeometry x="185" y="380" width="130" height="120" as="geometry" />
        </mxCell>
        <mxCell id="YUkJ70VLG-JB5ZvIF8RC-12" value="Consolidated" style="rounded=0;whiteSpace=wrap;html=1;fillColor=#dae8fc;strokeColor=#6c8ebf;" parent="YUkJ70VLG-JB5ZvIF8RC-1" vertex="1">
          <mxGeometry x="286" y="540" width="127.5" height="40" as="geometry" />
        </mxCell>
        <mxCell id="YUkJ70VLG-JB5ZvIF8RC-13" value="No" style="edgeStyle=orthogonalEdgeStyle;rounded=0;orthogonalLoop=1;jettySize=auto;html=1;exitX=1;exitY=0.5;exitDx=0;exitDy=0;" parent="YUkJ70VLG-JB5ZvIF8RC-1" source="YUkJ70VLG-JB5ZvIF8RC-11" edge="1">
          <mxGeometry relative="1" as="geometry">
            <Array as="points">
              <mxPoint x="340" y="440" />
              <mxPoint x="340" y="540" />
            </Array>
            <mxPoint x="340" y="540" as="targetPoint" />
          </mxGeometry>
        </mxCell>
        <mxCell id="YUkJ70VLG-JB5ZvIF8RC-14" value="Standard&lt;span style=&quot;white-space: pre;&quot;&gt;&#x9;&lt;/span&gt;" style="rounded=0;whiteSpace=wrap;html=1;fillColor=#dae8fc;strokeColor=#6c8ebf;" parent="YUkJ70VLG-JB5ZvIF8RC-1" vertex="1">
          <mxGeometry x="100" y="540" width="132.5" height="40" as="geometry" />
        </mxCell>
      </root>
    </mxGraphModel>
  </diagram>
  <diagram name="Veeam v Zerto Basic" id="8VpzCM-rjkBzjYrRP2az">
    <mxGraphModel dx="2060" dy="1131" grid="1" gridSize="10" guides="1" tooltips="1" connect="1" arrows="1" fold="1" page="1" pageScale="1" pageWidth="827" pageHeight="1169" math="0" shadow="0">
      <root>
        <mxCell id="l0xpet3knr_XbYYzvZTt-0" />
        <mxCell id="l0xpet3knr_XbYYzvZTt-1" parent="l0xpet3knr_XbYYzvZTt-0" />
        <mxCell id="l0xpet3knr_XbYYzvZTt-2" style="edgeStyle=orthogonalEdgeStyle;rounded=0;orthogonalLoop=1;jettySize=auto;html=1;" parent="l0xpet3knr_XbYYzvZTt-1" source="l0xpet3knr_XbYYzvZTt-3" target="l0xpet3knr_XbYYzvZTt-5" edge="1">
          <mxGeometry relative="1" as="geometry" />
        </mxCell>
        <mxCell id="l0xpet3knr_XbYYzvZTt-3" value="&lt;div style=&quot;&quot;&gt;&lt;b style=&quot;background-color: initial;&quot;&gt;Need&lt;/b&gt;&lt;/div&gt;disaster recovery capability for VMware workloads across IBM Cloud regions" style="rounded=1;whiteSpace=wrap;html=1;align=center;fillColor=#dae8fc;strokeColor=#6c8ebf;" parent="l0xpet3knr_XbYYzvZTt-1" vertex="1">
          <mxGeometry x="267.5" y="60" width="135" height="90" as="geometry" />
        </mxCell>
        <mxCell id="l0xpet3knr_XbYYzvZTt-4" value="Yes" style="edgeStyle=orthogonalEdgeStyle;rounded=0;orthogonalLoop=1;jettySize=auto;html=1;" parent="l0xpet3knr_XbYYzvZTt-1" source="l0xpet3knr_XbYYzvZTt-5" target="l0xpet3knr_XbYYzvZTt-7" edge="1">
          <mxGeometry relative="1" as="geometry">
            <Array as="points">
              <mxPoint x="425" y="250" />
            </Array>
          </mxGeometry>
        </mxCell>
        <mxCell id="l0xpet3knr_XbYYzvZTt-5" value="&lt;span style=&quot;font-family: Helvetica; font-size: 12px; font-style: normal; font-variant-ligatures: normal; font-variant-caps: normal; font-weight: 400; letter-spacing: normal; orphans: 2; text-align: center; text-indent: 0px; text-transform: none; widows: 2; word-spacing: 0px; -webkit-text-stroke-width: 0px; text-decoration-thickness: initial; text-decoration-style: initial; text-decoration-color: initial; float: none; display: inline !important;&quot;&gt;vSphere &lt;br&gt;encryption &lt;br&gt;compatibility &lt;br&gt;needed&lt;/span&gt;" style="rhombus;whiteSpace=wrap;html=1;fillColor=#dae8fc;strokeColor=#6c8ebf;fontColor=default;labelBackgroundColor=none;" parent="l0xpet3knr_XbYYzvZTt-1" vertex="1">
          <mxGeometry x="270" y="190" width="130" height="120" as="geometry" />
        </mxCell>
        <mxCell id="l0xpet3knr_XbYYzvZTt-6" value="Zerto" style="rounded=0;whiteSpace=wrap;html=1;fillColor=#ffe6cc;strokeColor=#d79b00;" parent="l0xpet3knr_XbYYzvZTt-1" vertex="1">
          <mxGeometry x="220" y="330" width="60" height="20" as="geometry" />
        </mxCell>
        <mxCell id="l0xpet3knr_XbYYzvZTt-7" value="Veeam" style="rounded=0;whiteSpace=wrap;html=1;fillColor=#dae8fc;strokeColor=#6c8ebf;" parent="l0xpet3knr_XbYYzvZTt-1" vertex="1">
          <mxGeometry x="390" y="330" width="70" height="20" as="geometry" />
        </mxCell>
        <mxCell id="l0xpet3knr_XbYYzvZTt-8" value="No" style="edgeStyle=orthogonalEdgeStyle;rounded=0;orthogonalLoop=1;jettySize=auto;html=1;" parent="l0xpet3knr_XbYYzvZTt-1" source="l0xpet3knr_XbYYzvZTt-5" target="l0xpet3knr_XbYYzvZTt-6" edge="1">
          <mxGeometry relative="1" as="geometry">
            <Array as="points">
              <mxPoint x="250" y="250" />
            </Array>
          </mxGeometry>
        </mxCell>
      </root>
    </mxGraphModel>
  </diagram>
  <diagram name="Zerto" id="vzhwwD8AwHDnNuQvaVza">
    <mxGraphModel dx="2060" dy="1131" grid="1" gridSize="10" guides="1" tooltips="1" connect="1" arrows="1" fold="1" page="1" pageScale="1" pageWidth="827" pageHeight="1169" math="0" shadow="0">
      <root>
        <mxCell id="uOQ39EAIutqdIeEjohP7-0" />
        <mxCell id="uOQ39EAIutqdIeEjohP7-1" parent="uOQ39EAIutqdIeEjohP7-0" />
        <mxCell id="uOQ39EAIutqdIeEjohP7-2" style="edgeStyle=orthogonalEdgeStyle;rounded=0;orthogonalLoop=1;jettySize=auto;html=1;" parent="uOQ39EAIutqdIeEjohP7-1" source="uOQ39EAIutqdIeEjohP7-3" target="uOQ39EAIutqdIeEjohP7-5" edge="1">
          <mxGeometry relative="1" as="geometry" />
        </mxCell>
        <mxCell id="uOQ39EAIutqdIeEjohP7-3" value="&lt;div style=&quot;text-align: center;&quot;&gt;Do you require&amp;nbsp;&lt;/div&gt;&lt;span style=&quot;&quot;&gt;&lt;div style=&quot;text-align: center;&quot;&gt;&lt;span style=&quot;background-color: initial;&quot;&gt;disaster recovery capability for VMware workloads across IBM Cloud regions&lt;/span&gt;&lt;/div&gt;&lt;/span&gt;&lt;div style=&quot;text-align: center;&quot;&gt;&lt;/div&gt;" style="rounded=1;whiteSpace=wrap;html=1;align=left;fillColor=#dae8fc;strokeColor=#6c8ebf;" parent="uOQ39EAIutqdIeEjohP7-1" vertex="1">
          <mxGeometry x="267.5" y="60" width="135" height="90" as="geometry" />
        </mxCell>
        <mxCell id="uOQ39EAIutqdIeEjohP7-4" value="Yes" style="edgeStyle=orthogonalEdgeStyle;rounded=0;orthogonalLoop=1;jettySize=auto;html=1;" parent="uOQ39EAIutqdIeEjohP7-1" source="uOQ39EAIutqdIeEjohP7-5" target="uOQ39EAIutqdIeEjohP7-7" edge="1">
          <mxGeometry relative="1" as="geometry">
            <Array as="points">
              <mxPoint x="425" y="250" />
            </Array>
          </mxGeometry>
        </mxCell>
        <mxCell id="uOQ39EAIutqdIeEjohP7-5" value="&lt;span style=&quot;font-family: Helvetica; font-size: 12px; font-style: normal; font-variant-ligatures: normal; font-variant-caps: normal; font-weight: 400; letter-spacing: normal; orphans: 2; text-align: center; text-indent: 0px; text-transform: none; widows: 2; word-spacing: 0px; -webkit-text-stroke-width: 0px; text-decoration-thickness: initial; text-decoration-style: initial; text-decoration-color: initial; float: none; display: inline !important;&quot;&gt;vSphere &lt;br&gt;encryption &lt;br&gt;compatibility &lt;br&gt;needed&lt;/span&gt;" style="rhombus;whiteSpace=wrap;html=1;fillColor=#dae8fc;strokeColor=#6c8ebf;fontColor=default;labelBackgroundColor=none;" parent="uOQ39EAIutqdIeEjohP7-1" vertex="1">
          <mxGeometry x="270" y="190" width="130" height="120" as="geometry" />
        </mxCell>
        <mxCell id="uOQ39EAIutqdIeEjohP7-6" value="Zerto" style="rounded=0;whiteSpace=wrap;html=1;fillColor=#ffe6cc;strokeColor=#d79b00;" parent="uOQ39EAIutqdIeEjohP7-1" vertex="1">
          <mxGeometry x="220" y="330" width="60" height="20" as="geometry" />
        </mxCell>
        <mxCell id="uOQ39EAIutqdIeEjohP7-7" value="Veeam" style="rounded=0;whiteSpace=wrap;html=1;fillColor=#dae8fc;strokeColor=#6c8ebf;" parent="uOQ39EAIutqdIeEjohP7-1" vertex="1">
          <mxGeometry x="390" y="330" width="70" height="20" as="geometry" />
        </mxCell>
        <mxCell id="uOQ39EAIutqdIeEjohP7-8" value="No" style="edgeStyle=orthogonalEdgeStyle;rounded=0;orthogonalLoop=1;jettySize=auto;html=1;" parent="uOQ39EAIutqdIeEjohP7-1" source="uOQ39EAIutqdIeEjohP7-5" target="uOQ39EAIutqdIeEjohP7-6" edge="1">
          <mxGeometry relative="1" as="geometry">
            <Array as="points">
              <mxPoint x="250" y="250" />
            </Array>
            <mxPoint as="offset" />
          </mxGeometry>
        </mxCell>
      </root>
    </mxGraphModel>
  </diagram>
  <diagram id="vLJIc9MyE846H874pXE8" name="veeam_deployment">
    <mxGraphModel dx="2060" dy="2369" grid="1" gridSize="10" guides="1" tooltips="1" connect="1" arrows="1" fold="1" page="1" pageScale="1" pageWidth="827" pageHeight="1169" math="0" shadow="0">
      <root>
        <mxCell id="0" />
        <mxCell id="1" parent="0" />
        <mxCell id="3o47zuskQ4emcLuhvPM6-15" style="edgeStyle=orthogonalEdgeStyle;rounded=0;orthogonalLoop=1;jettySize=auto;html=1;" parent="1" source="3o47zuskQ4emcLuhvPM6-2" target="3o47zuskQ4emcLuhvPM6-10" edge="1">
          <mxGeometry relative="1" as="geometry">
            <Array as="points">
              <mxPoint x="388" y="-1060" />
              <mxPoint x="388" y="-1060" />
            </Array>
          </mxGeometry>
        </mxCell>
        <mxCell id="3o47zuskQ4emcLuhvPM6-2" value="&lt;b&gt;Veeam deployment options&lt;/b&gt;&lt;div style=&quot;&quot;&gt;&lt;/div&gt;" style="rounded=1;whiteSpace=wrap;html=1;align=center;fillColor=#dae8fc;strokeColor=#6c8ebf;" parent="1" vertex="1">
          <mxGeometry x="320" y="-1120" width="135" height="50" as="geometry" />
        </mxCell>
        <mxCell id="3o47zuskQ4emcLuhvPM6-3" value="Yes" style="edgeStyle=orthogonalEdgeStyle;rounded=0;orthogonalLoop=1;jettySize=auto;html=1;" parent="1" source="3o47zuskQ4emcLuhvPM6-10" target="3o47zuskQ4emcLuhvPM6-6" edge="1">
          <mxGeometry relative="1" as="geometry">
            <Array as="points">
              <mxPoint x="450" y="-960" />
              <mxPoint x="450" y="-960" />
            </Array>
          </mxGeometry>
        </mxCell>
        <mxCell id="3o47zuskQ4emcLuhvPM6-9" value="Yes" style="edgeStyle=orthogonalEdgeStyle;rounded=0;orthogonalLoop=1;jettySize=auto;html=1;" parent="1" source="3o47zuskQ4emcLuhvPM6-4" target="3o47zuskQ4emcLuhvPM6-8" edge="1">
          <mxGeometry relative="1" as="geometry">
            <Array as="points">
              <mxPoint x="278" y="-793" />
            </Array>
          </mxGeometry>
        </mxCell>
        <mxCell id="3o47zuskQ4emcLuhvPM6-4" value="Need for the &lt;br&gt;Veeam server to be highly available" style="rhombus;whiteSpace=wrap;html=1;fillColor=#dae8fc;strokeColor=#6c8ebf;fontColor=default;labelBackgroundColor=none;" parent="1" vertex="1">
          <mxGeometry x="322.5" y="-853" width="130" height="120" as="geometry" />
        </mxCell>
        <mxCell id="3o47zuskQ4emcLuhvPM6-5" value="Windows VSI &lt;br&gt;(hosted on IBM Cloud)" style="rounded=0;whiteSpace=wrap;html=1;fillColor=#dae8fc;strokeColor=#6c8ebf;" parent="1" vertex="1">
          <mxGeometry x="452.5" y="-740" width="127.5" height="40" as="geometry" />
        </mxCell>
        <mxCell id="3o47zuskQ4emcLuhvPM6-6" value="Bare Metal Server" style="rounded=0;whiteSpace=wrap;html=1;fillColor=#ffe6cc;strokeColor=#d79b00;" parent="1" vertex="1">
          <mxGeometry x="510" y="-970" width="100" height="20" as="geometry" />
        </mxCell>
        <mxCell id="3o47zuskQ4emcLuhvPM6-7" value="No" style="edgeStyle=orthogonalEdgeStyle;rounded=0;orthogonalLoop=1;jettySize=auto;html=1;" parent="1" source="3o47zuskQ4emcLuhvPM6-4" target="3o47zuskQ4emcLuhvPM6-5" edge="1">
          <mxGeometry relative="1" as="geometry">
            <Array as="points">
              <mxPoint x="498" y="-793" />
            </Array>
          </mxGeometry>
        </mxCell>
        <mxCell id="3o47zuskQ4emcLuhvPM6-8" value="Windows VM &lt;br&gt;(hosted on the VMware deployment)" style="rounded=0;whiteSpace=wrap;html=1;fillColor=#dae8fc;strokeColor=#6c8ebf;" parent="1" vertex="1">
          <mxGeometry x="190" y="-740" width="132.5" height="40" as="geometry" />
        </mxCell>
        <mxCell id="3o47zuskQ4emcLuhvPM6-14" value="No" style="edgeStyle=orthogonalEdgeStyle;rounded=0;orthogonalLoop=1;jettySize=auto;html=1;" parent="1" source="3o47zuskQ4emcLuhvPM6-10" target="3o47zuskQ4emcLuhvPM6-4" edge="1">
          <mxGeometry relative="1" as="geometry">
            <Array as="points">
              <mxPoint x="365" y="-960" />
            </Array>
          </mxGeometry>
        </mxCell>
        <mxCell id="3o47zuskQ4emcLuhvPM6-10" value="Need for&amp;nbsp;&lt;br&gt;physical isolation&lt;br&gt;&amp;nbsp;of the Veeam server and its&amp;nbsp;storage" style="rhombus;whiteSpace=wrap;html=1;fillColor=#dae8fc;strokeColor=#6c8ebf;fontColor=default;labelBackgroundColor=none;" parent="1" vertex="1">
          <mxGeometry x="322.5" y="-1020" width="130" height="120" as="geometry" />
        </mxCell>
      </root>
    </mxGraphModel>
  </diagram>
  <diagram name="KMS" id="hro80h1Kh4wBRXjXCcC7">
    <mxGraphModel dx="2060" dy="1200" grid="1" gridSize="10" guides="1" tooltips="1" connect="1" arrows="1" fold="1" page="1" pageScale="1" pageWidth="827" pageHeight="1169" math="0" shadow="0">
      <root>
        <mxCell id="XDGDI48KLB5o8Xd3qSgd-0" />
        <mxCell id="XDGDI48KLB5o8Xd3qSgd-1" parent="XDGDI48KLB5o8Xd3qSgd-0" />
        <mxCell id="XDGDI48KLB5o8Xd3qSgd-2" style="edgeStyle=orthogonalEdgeStyle;rounded=0;orthogonalLoop=1;jettySize=auto;html=1;" parent="XDGDI48KLB5o8Xd3qSgd-1" source="XDGDI48KLB5o8Xd3qSgd-3" target="XDGDI48KLB5o8Xd3qSgd-5" edge="1">
          <mxGeometry relative="1" as="geometry" />
        </mxCell>
        <mxCell id="XDGDI48KLB5o8Xd3qSgd-3" value="&lt;b&gt;KMS choice&lt;/b&gt;&lt;div style=&quot;&quot;&gt;&lt;/div&gt;" style="rounded=1;whiteSpace=wrap;html=1;align=center;fillColor=#dae8fc;strokeColor=#6c8ebf;" parent="XDGDI48KLB5o8Xd3qSgd-1" vertex="1">
          <mxGeometry x="267.5" y="120" width="135" height="30" as="geometry" />
        </mxCell>
        <mxCell id="XDGDI48KLB5o8Xd3qSgd-4" value="No" style="edgeStyle=orthogonalEdgeStyle;rounded=0;orthogonalLoop=1;jettySize=auto;html=1;" parent="XDGDI48KLB5o8Xd3qSgd-1" source="XDGDI48KLB5o8Xd3qSgd-5" target="XDGDI48KLB5o8Xd3qSgd-11" edge="1">
          <mxGeometry x="-0.0598" relative="1" as="geometry">
            <Array as="points">
              <mxPoint x="468" y="250" />
            </Array>
            <mxPoint x="425" y="330" as="targetPoint" />
            <mxPoint as="offset" />
          </mxGeometry>
        </mxCell>
        <mxCell id="XDGDI48KLB5o8Xd3qSgd-5" value="Veeam native encryption used with KMS?" style="rhombus;whiteSpace=wrap;html=1;fillColor=#dae8fc;strokeColor=#6c8ebf;fontColor=default;labelBackgroundColor=none;" parent="XDGDI48KLB5o8Xd3qSgd-1" vertex="1">
          <mxGeometry x="270" y="190" width="130" height="120" as="geometry" />
        </mxCell>
        <mxCell id="XDGDI48KLB5o8Xd3qSgd-6" value="IBM Security Guardium Key Lifecycle Manager (GKLM)" style="rounded=0;whiteSpace=wrap;html=1;fillColor=#dae8fc;strokeColor=#6c8ebf;" parent="XDGDI48KLB5o8Xd3qSgd-1" vertex="1">
          <mxGeometry x="150" y="330" width="130" height="50" as="geometry" />
        </mxCell>
        <mxCell id="XDGDI48KLB5o8Xd3qSgd-8" value="Yes" style="edgeStyle=orthogonalEdgeStyle;rounded=0;orthogonalLoop=1;jettySize=auto;html=1;" parent="XDGDI48KLB5o8Xd3qSgd-1" source="XDGDI48KLB5o8Xd3qSgd-5" target="XDGDI48KLB5o8Xd3qSgd-6" edge="1">
          <mxGeometry x="0.2857" relative="1" as="geometry">
            <Array as="points">
              <mxPoint x="210" y="250" />
            </Array>
            <mxPoint y="-1" as="offset" />
          </mxGeometry>
        </mxCell>
        <mxCell id="XDGDI48KLB5o8Xd3qSgd-10" value="Yes" style="edgeStyle=orthogonalEdgeStyle;rounded=0;orthogonalLoop=1;jettySize=auto;html=1;" parent="XDGDI48KLB5o8Xd3qSgd-1" source="XDGDI48KLB5o8Xd3qSgd-11" target="XDGDI48KLB5o8Xd3qSgd-14" edge="1">
          <mxGeometry x="0.3603" relative="1" as="geometry">
            <Array as="points">
              <mxPoint x="341" y="450" />
            </Array>
            <mxPoint as="offset" />
          </mxGeometry>
        </mxCell>
        <mxCell id="XDGDI48KLB5o8Xd3qSgd-11" value="Dedicated HSM needed?" style="rhombus;whiteSpace=wrap;html=1;fillColor=#dae8fc;strokeColor=#6c8ebf;fontColor=default;labelBackgroundColor=none;" parent="XDGDI48KLB5o8Xd3qSgd-1" vertex="1">
          <mxGeometry x="402.5" y="390" width="130" height="120" as="geometry" />
        </mxCell>
        <mxCell id="XDGDI48KLB5o8Xd3qSgd-12" value="IBM Cloud Key Protect" style="rounded=0;whiteSpace=wrap;html=1;fillColor=#dae8fc;strokeColor=#6c8ebf;" parent="XDGDI48KLB5o8Xd3qSgd-1" vertex="1">
          <mxGeometry x="532.5" y="523" width="127.5" height="47" as="geometry" />
        </mxCell>
        <mxCell id="XDGDI48KLB5o8Xd3qSgd-13" value="No" style="edgeStyle=orthogonalEdgeStyle;rounded=0;orthogonalLoop=1;jettySize=auto;html=1;" parent="XDGDI48KLB5o8Xd3qSgd-1" source="XDGDI48KLB5o8Xd3qSgd-11" target="XDGDI48KLB5o8Xd3qSgd-12" edge="1">
          <mxGeometry x="0.37" relative="1" as="geometry">
            <Array as="points">
              <mxPoint x="596" y="450" />
            </Array>
            <mxPoint y="1" as="offset" />
          </mxGeometry>
        </mxCell>
        <mxCell id="XDGDI48KLB5o8Xd3qSgd-14" value="IBM Cloud Hyper Protect Crypto Services (HPCS)" style="rounded=0;whiteSpace=wrap;html=1;fillColor=#dae8fc;strokeColor=#6c8ebf;" parent="XDGDI48KLB5o8Xd3qSgd-1" vertex="1">
          <mxGeometry x="280" y="523" width="122.5" height="47" as="geometry" />
        </mxCell>
      </root>
    </mxGraphModel>
  </diagram>
</mxfile>
